<svg width="24" height="24" viewBox="0 0 24 24" fill="none" xmlns="http://www.w3.org/2000/svg">
<path d="M12 17C13.1046 17 14 16.1046 14 15C14 13.8954 13.1046 13 12 13C10.8954 13 10 13.8954 10 15C10 16.1046 10.8954 17 12 17Z" stroke="#111111" stroke-width="2" stroke-miterlimit="10" stroke-linecap="square"/>
<path d="M12 17V19" stroke="#111111" stroke-width="2" stroke-miterlimit="10" stroke-linecap="round"/>
<path d="M19 9H5C4.44772 9 4 9.44772 4 10V22C4 22.5523 4.44772 23 5 23H19C19.5523 23 20 22.5523 20 22V10C20 9.44772 19.5523 9 19 9Z" stroke="#111111" stroke-width="2" stroke-miterlimit="10" stroke-linecap="square"/>
<path d="M7 6C7 3.23858 9.23858 1 12 1V1C14.7614 1 17 3.23858 17 6V8.97394C17 8.98833 16.9883 9 16.9739 9H7.02606C7.01167 9 7 8.98833 7 8.97394V6Z" stroke="#111111" stroke-width="2" stroke-miterlimit="10" stroke-linecap="square"/>
</svg>
