<svg width="24" height="24" viewBox="0 0 24 24" fill="none" xmlns="http://www.w3.org/2000/svg">
<path d="M6.2898 8H17.7102L19.7727 18H4.2273L6.2898 8Z" stroke="#fff" stroke-width="2"/>
<mask id="path-2-inside-1_26_1304" fill="white">
<rect x="1" y="17" width="22" height="5" rx="1"/>
</mask>
<rect x="1" y="17" width="22" height="5" rx="1" stroke="#fff" stroke-width="4" mask="url(#path-2-inside-1_26_1304)"/>
<path d="M16 15C16 12.7909 14.2091 11 12 11C9.79086 11 8 12.7909 8 15" stroke="#fff" stroke-width="2" stroke-linecap="round" stroke-linejoin="round"/>
<path d="M12 15L13 14" stroke="#fff" stroke-width="2" stroke-linecap="round" stroke-linejoin="round"/>
<path d="M8 7C8 7.55228 8.44772 8 9 8C9.55228 8 10 7.55228 10 7H8ZM14 7C14 7.55228 14.4477 8 15 8C15.5523 8 16 7.55228 16 7H14ZM10 7V6H8V7H10ZM11 5H13V3H11V5ZM14 6V7H16V6H14ZM13 5C13.5523 5 14 5.44772 14 6H16C16 4.34315 14.6569 3 13 3V5ZM10 6C10 5.44772 10.4477 5 11 5V3C9.34315 3 8 4.34315 8 6H10Z" fill="#fff"/>
</svg>
